<svg preserveAspectRatio="none" overflow="visible" style="display: block;" width="22.7149" height="22.1252" viewBox="0 0 22.7149 22.1252" fill="none" xmlns="http://www.w3.org/2000/svg">
<g id="Frame 1948755362">
<path id="Vector" d="M4.25 10.8335C6.04493 10.8335 7.5 9.37842 7.5 7.5835C7.5 5.78857 6.04493 4.3335 4.25 4.3335C2.45507 4.3335 1 5.78857 1 7.5835C1 9.37842 2.45507 10.8335 4.25 10.8335ZM4.25 10.8335V15.7085C4.25 16.2831 4.47827 16.8342 4.8846 17.2406C5.29093 17.6469 5.84203 17.8752 6.41667 17.8752H16.7083M13.4583 21.1252L16.7083 17.8752L13.4583 14.6252" stroke="#484B4D" stroke-width="2" stroke-linecap="round" stroke-linejoin="round"/>
<g id="Frame 1948755444">
<path id="Line 75 (Stroke)" d="M15.9263 10.5647C15.9263 11.117 15.4786 11.5647 14.9263 11.5647C14.374 11.5647 13.9263 11.117 13.9263 10.5647L13.9263 3.57739C13.9263 3.02511 14.374 2.57739 14.9263 2.57739C15.4786 2.57739 15.9263 3.02511 15.9263 3.57739L15.9263 10.5647Z" fill="#484B4D"/>
<path id="Line 76 (Stroke)" d="M11.4326 8.07057C10.8803 8.07057 10.4326 7.62286 10.4326 7.07057C10.4326 6.51829 10.8803 6.07057 11.4326 6.07057L18.4199 6.07057C18.9722 6.07057 19.4199 6.51829 19.4199 7.07057C19.4199 7.62286 18.9722 8.07057 18.4199 8.07057L11.4326 8.07057Z" fill="#484B4D"/>
</g>
</g>
</svg>
